<?xml version="1.0" encoding="UTF-8" standalone="no"?>
<svg width="26px" height="26px" viewBox="0 0 26 26" version="1.1" xmlns="http://www.w3.org/2000/svg" xmlns:xlink="http://www.w3.org/1999/xlink">
    <!-- Generator: Sketch 39.1 (31720) - http://www.bohemiancoding.com/sketch -->
    <title>Page 1</title>
    <desc>Created with Sketch.</desc>
    <defs></defs>
    <g id="CityLimo-App" stroke="none" stroke-width="1" fill="none" fill-rule="evenodd">
        <g id="Homepage" transform="translate(-223.000000, -619.000000)" fill="#BFBFBF">
            <g id="Page-1" transform="translate(223.000000, 619.000000)">
                <path d="M4.370387,15.4369758 L4.61665069,15.3593952 C7.90016648,14.1799597 11.5125811,14.21875 14.7534112,15.4369758 C16.5193954,16.1047984 18.366373,16.4198387 20.2538474,16.4198387 C22.0192844,16.4198387 23.7830796,16.1047984 25.5080199,15.5150806 L25.7542836,15.4369758 C25.9184594,15.3981855 26,15.2404032 26,15.082621 L26,1.59931452 C26,1.48032258 25.9184594,1.36395161 25.835277,1.28375 C25.7115979,1.20616935 25.5895605,1.20616935 25.4653342,1.24495968 L25.2196177,1.32254032 C21.936102,2.50197581 18.3236873,2.46318548 15.0828573,1.24495968 C11.5963107,-0.0534677419 7.77812914,-0.0922580645 4.32989031,1.12596774 L4.08417388,1.24495968 C3.91945084,1.28375 3.83845745,1.44153226 3.83845745,1.59931452 L3.83845745,15.0847177 C3.83845745,15.2037097 3.91945084,15.3206048 4.00318049,15.4002823 C4.08417388,15.4757661 4.24889692,15.4757661 4.370387,15.4369758 L4.370387,15.4369758 Z M4.6188397,1.87346774 C7.90235549,0.694032258 11.4720844,0.732822581 14.7151035,1.95157258 C18.039116,3.20858871 21.7330712,3.28826613 25.1408134,2.14814516 L25.1408134,14.8084677 C21.8572976,15.9879032 18.2870214,15.9491129 15.0440023,14.7308871 C13.2785653,14.0630645 11.4315877,13.7480242 9.54411338,13.7480242 C7.86131154,13.7480242 6.21955365,14.0221774 4.6188397,14.5343145 L4.6188397,1.87346774 Z" id="Fill-1"></path>
                <path d="M1.71281915,25.5466459 L1.71281915,1.48032258 C1.71281915,1.24495968 1.50468085,1.08717742 1.19420213,1.08717742 C0.883031915,1.08717742 0.675585106,1.24495968 0.675585106,1.48032258 L0.675585106,25.5854362 C0.675585106,25.7820088 0.934893617,25.9397911 1.19420213,25.9397911 C1.50468085,25.9397911 1.71281915,25.7820088 1.71281915,25.5466459 Z" id="Fill-2"></path>
            </g>
        </g>
    </g>
</svg>