<?xml version="1.0" encoding="UTF-8" standalone="no"?>
<svg width="27px" height="25px" viewBox="0 0 27 25" version="1.1" xmlns="http://www.w3.org/2000/svg" xmlns:xlink="http://www.w3.org/1999/xlink">
    <!-- Generator: Sketch 39.1 (31720) - http://www.bohemiancoding.com/sketch -->
    <title>Page 1</title>
    <desc>Created with Sketch.</desc>
    <defs></defs>
    <g id="CityLimo-App" stroke="none" stroke-width="1" fill="none" fill-rule="evenodd">
        <g id="Homepage" transform="translate(-128.000000, -620.000000)" fill="#CBC8C8">
            <path d="M131.068182,621.227273 L131.068182,622.454545 L128.920455,622.454545 C128.415636,622.454545 128,622.870182 128,623.375 L128,643.625 C128,644.129818 128.415636,644.545455 128.920455,644.545455 L154.079545,644.545455 C154.584364,644.545455 155,644.129818 155,643.625 L155,623.375 C155,622.870182 154.584364,622.454545 154.079545,622.454545 L151.931818,622.454545 L151.931818,621.227273 C151.931818,620.553091 151.378727,620 150.704545,620 C150.030364,620 149.477273,620.553091 149.477273,621.227273 L149.477273,622.454545 L145.795455,622.454545 L145.795455,621.227273 C145.795455,620.553091 145.242364,620 144.568182,620 C143.894,620 143.340909,620.553091 143.340909,621.227273 L143.340909,622.454545 L139.659091,622.454545 L139.659091,621.227273 C139.659091,620.553091 139.106,620 138.431818,620 C137.757636,620 137.204545,620.553091 137.204545,621.227273 L137.204545,622.454545 L133.522727,622.454545 L133.522727,621.227273 C133.522727,620.553091 132.969636,620 132.295455,620 C131.621273,620 131.068182,620.553091 131.068182,621.227273 Z M132.295455,620.613636 C132.640727,620.613636 132.909091,620.882 132.909091,621.227273 L132.909091,624.295455 C132.909091,624.640727 132.640727,624.909091 132.295455,624.909091 C131.950182,624.909091 131.681818,624.640727 131.681818,624.295455 L131.681818,621.227273 C131.681818,620.882 131.950182,620.613636 132.295455,620.613636 L132.295455,620.613636 Z M138.431818,620.613636 C138.777091,620.613636 139.045455,620.882 139.045455,621.227273 L139.045455,624.295455 C139.045455,624.640727 138.777091,624.909091 138.431818,624.909091 C138.086545,624.909091 137.818182,624.640727 137.818182,624.295455 L137.818182,621.227273 C137.818182,620.882 138.086545,620.613636 138.431818,620.613636 L138.431818,620.613636 Z M144.568182,620.613636 C144.913455,620.613636 145.181818,620.882 145.181818,621.227273 L145.181818,624.295455 C145.181818,624.640727 144.913455,624.909091 144.568182,624.909091 C144.222909,624.909091 143.954545,624.640727 143.954545,624.295455 L143.954545,621.227273 C143.954545,620.882 144.222909,620.613636 144.568182,620.613636 L144.568182,620.613636 Z M150.704545,620.613636 C151.049818,620.613636 151.318182,620.882 151.318182,621.227273 L151.318182,624.295455 C151.318182,624.640727 151.049818,624.909091 150.704545,624.909091 C150.359273,624.909091 150.090909,624.640727 150.090909,624.295455 L150.090909,621.227273 C150.090909,620.882 150.359273,620.613636 150.704545,620.613636 L150.704545,620.613636 Z M128.920455,623.068182 L131.068182,623.068182 L131.068182,624.295455 C131.068182,624.969636 131.621273,625.522727 132.295455,625.522727 C132.969636,625.522727 133.522727,624.969636 133.522727,624.295455 L133.522727,623.068182 L137.204545,623.068182 L137.204545,624.295455 C137.204545,624.969636 137.757636,625.522727 138.431818,625.522727 C139.106,625.522727 139.659091,624.969636 139.659091,624.295455 L139.659091,623.068182 L143.340909,623.068182 L143.340909,624.295455 C143.340909,624.969636 143.894,625.522727 144.568182,625.522727 C145.242364,625.522727 145.795455,624.969636 145.795455,624.295455 L145.795455,623.068182 L149.477273,623.068182 L149.477273,624.295455 C149.477273,624.969636 150.030364,625.522727 150.704545,625.522727 C151.378727,625.522727 151.931818,624.969636 151.931818,624.295455 L151.931818,623.068182 L154.079545,623.068182 C154.255455,623.068182 154.386364,623.199091 154.386364,623.375 L154.386364,627.363636 L128.613636,627.363636 L128.613636,623.375 C128.613636,623.199091 128.744545,623.068182 128.920455,623.068182 L128.920455,623.068182 Z M128.613636,627.977273 L154.386364,627.977273 L154.386364,643.625 C154.386364,643.800909 154.255455,643.931818 154.079545,643.931818 L128.920455,643.931818 C128.744545,643.931818 128.613636,643.800909 128.613636,643.625 L128.613636,627.977273 Z" id="Page-1"></path>
        </g>
    </g>
</svg>