<?xml version="1.0" encoding="UTF-8" standalone="no"?>
<svg width="26px" height="26px" viewBox="0 0 26 26" version="1.1" xmlns="http://www.w3.org/2000/svg" xmlns:xlink="http://www.w3.org/1999/xlink">
    <!-- Generator: Sketch 39.1 (31720) - http://www.bohemiancoding.com/sketch -->
    <title>Page 1</title>
    <desc>Created with Sketch.</desc>
    <defs></defs>
    <g id="CityLimo-App" stroke="none" stroke-width="1" fill="none" fill-rule="evenodd">
        <g id="Homepage" transform="translate(-34.000000, -618.000000)" fill="#F5533D">
            <path d="M59.619675,643.995917 L50.6074824,643.995917 C50.3969812,643.995917 50.2258384,643.825256 50.2258384,643.614362 L50.2258384,637.516115 C50.2258384,635.739209 48.7784216,634.291688 47.0006595,634.291688 C45.2215707,634.291688 43.7754806,635.739209 43.7754806,637.516115 L43.7754806,643.614362 C43.7754806,643.825256 43.6043378,643.995917 43.3938366,643.995917 L34.381644,643.995917 C34.1707005,643.995917 34,643.825256 34,643.614362 L34,628.290267 C34,628.172661 34.0535098,628.06213 34.1450512,627.989621 L46.7640668,618.081572 C46.9020424,617.972809 47.0975077,617.972809 47.2354833,618.081572 L59.8544989,627.991389 C59.9460403,628.063898 59.9999923,628.17443 59.9999923,628.292035 L59.9999923,643.61613 C60.001319,643.825256 59.8306185,643.995917 59.619675,643.995917 L59.619675,643.995917 Z M50.9895686,643.232807 L59.2380311,643.232807 L59.2380311,628.476844 L47.0006595,618.867231 L34.7632879,628.476844 L34.7632879,643.232807 L43.0117504,643.232807 L43.0117504,637.516115 C43.0117504,635.317863 44.8014528,633.528578 47.0006595,633.528578 C49.1998662,633.528578 50.9895686,635.317863 50.9895686,637.516115 L50.9895686,643.232807 Z" id="Page-1"></path>
        </g>
    </g>
</svg>